<svg id="sobre-svg" viewBox="0 0 400 300" width="400" height="300" xmlns="http://www.w3.org/2000/svg">
  <!-- Grupo: Fondo del sobre -->
  <g id="fondo-sobre">
    <rect x="50" y="80" width="300" height="180" fill="#f5f5f5" stroke="#ddd" stroke-width="2"/>
  </g>
  
  <!-- Grupo: Parte trasera del sobre (forma en X) -->
  <g id="parte-trasera">
    <polygon points="50,80 200,180 350,80 350,260 200,180 50,260" fill="#e8e8e8" stroke="#ccc" stroke-width="1"/>
  </g>
  
  <!-- Grupo: Hoja blanca dentro del sobre -->
  <g id="hoja">
    <rect x="80" y="100" width="240" height="140" fill="#ffffff" stroke="#ddd" stroke-width="1"/>
    <!-- Líneas decorativas en la hoja -->
    <line x1="100" y1="120" x2="300" y2="120" stroke="#e0e0e0" stroke-width="1"/>
    <line x1="100" y1="140" x2="300" y2="140" stroke="#e0e0e0" stroke-width="1"/>
    <line x1="100" y1="160" x2="280" y2="160" stroke="#e0e0e0" stroke-width="1"/>
    <line x1="100" y1="180" x2="290" y2="180" stroke="#e0e0e0" stroke-width="1"/>
  </g>
  
  <!-- Grupo: Borde tricolor lateral izquierdo -->
  <g id="borde-izquierdo">
    <rect x="50" y="80" width="8" height="20" fill="#dc3545"/>
    <rect x="50" y="100" width="8" height="20" fill="#ffffff" stroke="#ddd" stroke-width="0.5"/>
    <rect x="50" y="120" width="8" height="20" fill="#007bff"/>
    <rect x="50" y="140" width="8" height="20" fill="#dc3545"/>
    <rect x="50" y="160" width="8" height="20" fill="#ffffff" stroke="#ddd" stroke-width="0.5"/>
    <rect x="50" y="180" width="8" height="20" fill="#007bff"/>
    <rect x="50" y="200" width="8" height="20" fill="#dc3545"/>
    <rect x="50" y="220" width="8" height="20" fill="#ffffff" stroke="#ddd" stroke-width="0.5"/>
    <rect x="50" y="240" width="8" height="20" fill="#007bff"/>
  </g>
  
  <!-- Grupo: Borde tricolor lateral derecho -->
  <g id="borde-derecho">
    <rect x="342" y="80" width="8" height="20" fill="#dc3545"/>
    <rect x="342" y="100" width="8" height="20" fill="#ffffff" stroke="#ddd" stroke-width="0.5"/>
    <rect x="342" y="120" width="8" height="20" fill="#007bff"/>
    <rect x="342" y="140" width="8" height="20" fill="#dc3545"/>
    <rect x="342" y="160" width="8" height="20" fill="#ffffff" stroke="#ddd" stroke-width="0.5"/>
    <rect x="342" y="180" width="8" height="20" fill="#007bff"/>
    <rect x="342" y="200" width="8" height="20" fill="#dc3545"/>
    <rect x="342" y="220" width="8" height="20" fill="#ffffff" stroke="#ddd" stroke-width="0.5"/>
    <rect x="342" y="240" width="8" height="20" fill="#007bff"/>
  </g>
  
  <!-- Grupo: Borde tricolor inferior -->
  <g id="borde-inferior">
    <rect x="58" y="252" width="20" height="8" fill="#dc3545"/>
    <rect x="78" y="252" width="20" height="8" fill="#ffffff" stroke="#ddd" stroke-width="0.5"/>
    <rect x="98" y="252" width="20" height="8" fill="#007bff"/>
    <rect x="118" y="252" width="20" height="8" fill="#dc3545"/>
    <rect x="138" y="252" width="20" height="8" fill="#ffffff" stroke="#ddd" stroke-width="0.5"/>
    <rect x="158" y="252" width="20" height="8" fill="#007bff"/>
    <rect x="178" y="252" width="20" height="8" fill="#dc3545"/>
    <rect x="198" y="252" width="20" height="8" fill="#ffffff" stroke="#ddd" stroke-width="0.5"/>
    <rect x="218" y="252" width="20" height="8" fill="#007bff"/>
    <rect x="238" y="252" width="20" height="8" fill="#dc3545"/>
    <rect x="258" y="252" width="20" height="8" fill="#ffffff" stroke="#ddd" stroke-width="0.5"/>
    <rect x="278" y="252" width="20" height="8" fill="#007bff"/>
    <rect x="298" y="252" width="20" height="8" fill="#dc3545"/>
    <rect x="318" y="252" width="20" height="8" fill="#ffffff" stroke="#ddd" stroke-width="0.5"/>
    <rect x="338" y="252" width="4" height="8" fill="#007bff"/>
  </g>
  
  <!-- Grupo: Tapa del sobre (abierta hacia arriba) -->
  <g id="tapa-sobre">
    <polygon points="50,80 200,20 350,80 320,70 200,40 80,70" fill="#e8e8e8" stroke="#ccc" stroke-width="2"/>
    <!-- Sombra interior de la tapa -->
    <polygon points="80,70 200,40 320,70 300,65 200,45 100,65" fill="#d0d0d0" opacity="0.5"/>
  </g>
</svg>

